<svg width="100" height="100" viewBox="0 0 100 100" fill="none" xmlns="http://www.w3.org/2000/svg">
<path d="M73.691 14.3041C71.682 12.1619 68.882 9.44467 65.0389 7.43238C61.3196 5.48495 57.6048 4.48908 52.6114 4.0987C51.7738 4.03314 50.9291 4 50.1031 4C39.771 4 32.5982 9.00413 28.4005 13.2021C23.7058 17.8949 18.2807 25.8284 19.0787 36.9739C19.669 45.2051 24.3848 51.6753 28.1718 56.8742L28.3328 57.0968C29.0095 58.0237 29.7118 58.9313 30.4562 59.8945C32.7989 62.9193 35.2209 66.0469 36.9593 70.0199L37.1599 70.4747C37.8716 72.0873 38.7536 74.094 38.6486 75.1267C38.5716 75.865 38.2519 76.2257 37.8833 76.6434C37.3723 77.2235 36.7353 77.9454 37.1436 79.492C37.6756 81.4992 40.205 81.4991 43.1333 81.4991H58.3982C60.8132 81.4991 63.3122 81.4991 63.8442 79.4913C64.2456 77.9804 63.5479 77.1334 62.9879 76.4533C62.6706 76.0685 62.3976 75.7362 62.3369 75.3192C62.0522 73.3027 64.2292 68.7238 66.3736 65.3226C67.7293 63.1759 69.1806 61.3116 70.5877 59.5091C71.2363 58.6758 71.8523 57.8885 72.4334 57.1013C72.7414 56.6843 73.0517 56.2676 73.3644 55.8518C77.2611 50.6274 81.2908 45.2261 81.9092 37.1953C82.7842 25.8368 77.1351 17.9778 73.691 14.3041ZM67.8786 53.0433C67.5986 53.4118 67.321 53.7793 67.0433 54.1463C66.558 54.7898 66.0726 55.4287 65.5849 56.0627C61.2099 61.7797 57.0752 67.187 56.1068 75.4109H44.8717C43.6653 66.7159 39.4513 61.1704 34.9922 55.3071C34.6469 54.8507 34.2969 54.3911 33.9469 53.9284L33.3519 53.1418C29.8798 48.5607 25.9434 43.3687 25.3788 37.3018C24.4851 27.7193 28.9208 21.185 32.7965 17.3909C37.7479 12.5424 43.726 10.084 50.5581 10.084C51.3398 10.084 52.1401 10.1171 52.9405 10.1827C64.9993 11.1681 74.7434 21.0032 75.6091 33.0604C76.2484 42.0098 71.9924 47.6187 67.8763 53.0433H67.8786Z" fill="black"/>
<path d="M59.6753 91.4548C58.693 91.2472 57.2766 91.1543 55.0786 91.1543C53.9399 91.1543 52.7055 91.1793 51.5109 91.2035C50.3278 91.2271 49.1075 91.2521 47.9945 91.2521C47.5045 91.2521 46.9958 91.243 46.4591 91.2339C45.9061 91.2245 45.3368 91.215 44.7745 91.215C42.7794 91.215 38.6284 91.215 38.43 93.8307C38.374 94.5477 38.6073 95.1499 39.1184 95.6196C40.2594 96.6666 42.5554 96.8078 44.6484 96.8078C45.6215 96.8078 46.6435 96.7716 47.6328 96.7366C48.6058 96.7019 49.5275 96.6699 50.3862 96.6699C51.0045 96.6699 51.7045 96.672 52.4442 96.6739C54.0495 96.6783 55.8323 96.6837 57.3513 96.6699C59.932 96.6463 62.3727 96.6244 62.5593 94.2801C62.7367 92.1037 60.9657 91.7288 59.6753 91.4548Z" fill="black"/>
</svg>
