<svg width="100" height="100" viewBox="0 0 100 100" fill="none" xmlns="http://www.w3.org/2000/svg">
<path d="M87.0907 55.1998C85.9907 55.1998 84.8408 54.8486 83.7408 54.5976C81.5127 54.0979 79.3221 53.4442 77.1877 52.6405C74.8659 51.7936 72.3128 51.8377 70.0222 52.7639C67.7316 53.6904 65.866 55.4339 64.7785 57.6585L63.6785 59.9669C58.8192 57.2029 54.3316 53.8304 50.3192 49.9308C46.4317 45.908 43.0693 41.4059 40.313 36.5322L42.6161 35.4784C44.8349 34.3891 46.5724 32.5153 47.4942 30.2178C48.4192 27.9204 48.463 25.3613 47.6193 23.0332C46.8224 20.8707 46.1724 18.6579 45.6662 16.4095C45.4162 15.3055 45.2161 14.1511 45.0661 13.0471C44.4599 9.51241 42.6131 6.31151 39.8631 4.0209C37.11 1.72999 33.6319 0.5 30.0569 0.551874H14.9977C12.8821 0.549374 10.7914 0.994992 8.86019 1.85967C6.92896 2.72435 5.20092 3.98903 3.79156 5.57026C2.35407 7.19431 1.28219 9.11179 0.650947 11.1905C0.0197027 13.2696 -0.1553 15.4608 0.138447 17.6139C2.8603 38.5 12.3727 57.9029 27.2069 72.8134C42.0724 87.6914 61.4159 97.2338 82.2407 99.9619C82.8876 100.012 83.5408 100.012 84.1908 99.9619C87.8783 99.9672 91.4407 98.6094 94.1969 96.1479C95.7719 94.7338 97.0344 93.001 97.8969 91.0639C98.7594 89.1267 99.2031 87.0286 99.2 84.9073V69.8528C99.1718 66.3853 97.9532 63.0338 95.7469 60.3638C93.5407 57.6941 90.4844 55.8701 87.0907 55.1998ZM89.5438 85.3086C89.5407 86.0089 89.3939 86.7011 89.1095 87.3408C88.8251 87.9801 88.4095 88.5529 87.8939 89.0223C87.3439 89.5232 86.6908 89.8957 85.9814 90.1126C85.272 90.3298 84.5251 90.3857 83.7907 90.2767C65.119 87.8311 47.7692 79.2971 34.4099 65.9888C21.0382 52.5776 12.4571 35.114 9.99458 16.3089C9.88833 15.573 9.94148 14.8221 10.1602 14.1102C10.3759 13.3986 10.7477 12.7443 11.2477 12.1943C11.7196 11.668 12.2977 11.2483 12.9446 10.963C13.5914 10.6774 14.2915 10.5327 14.9977 10.538H30.0069C31.1631 10.5099 32.2944 10.8843 33.2069 11.598C34.1194 12.3118 34.7569 13.3202 35.01 14.4524C35.01 15.8074 35.46 17.2123 35.76 18.5673C36.3381 21.1961 37.1099 23.7788 38.0631 26.2951L31.0569 29.6072C29.8537 30.1616 28.9194 31.1722 28.4569 32.4172C27.9569 33.6391 27.9569 35.0094 28.4569 36.2312C35.6568 51.7008 48.0536 64.136 63.4784 71.3581C64.6972 71.8603 66.0628 71.8603 67.2815 71.3581C68.5222 70.8947 69.5284 69.9562 70.0815 68.7487L73.2346 61.7235C75.8158 62.6676 78.4564 63.4385 81.1376 64.0316C82.4408 64.3329 83.8407 64.5838 85.1907 64.7844C86.3188 65.0394 87.3251 65.6788 88.0376 66.5938C88.747 67.5088 89.122 68.6425 89.0939 69.8025L89.5438 85.3086ZM60.0254 0C58.8754 0 57.6754 0 56.5223 0C55.1973 0.113124 53.9692 0.7503 53.1098 1.77154C52.2536 2.79247 51.8317 4.11371 51.9473 5.44463C52.0598 6.77556 52.6942 8.00711 53.7129 8.86804C54.7285 9.72928 56.0472 10.1496 57.3754 10.0365H60.0254C67.9878 10.0365 75.6221 13.2086 81.2533 18.8551C86.8814 24.5016 90.0438 32.16 90.0438 40.1453C90.0438 41.0487 90.0438 41.9015 90.0438 42.8049C89.9345 44.1287 90.3501 45.4427 91.2032 46.4586C92.0563 47.4746 93.2782 48.1096 94.5969 48.2246H94.9969C96.25 48.2296 97.4594 47.7633 98.3844 46.918C99.3094 46.0724 99.8875 44.9093 100 43.658C100 42.5037 100 41.2993 100 40.1453C100 29.5069 95.7907 19.3033 88.2939 11.7761C80.8002 4.24871 70.6315 0.0134374 60.0254 0ZM70.0315 40.1453C70.0315 41.4762 70.5596 42.7524 71.4971 43.6937C72.4346 44.6349 73.7065 45.1633 75.0346 45.1633C76.3627 45.1633 77.6346 44.6349 78.5721 43.6937C79.5096 42.7524 80.0377 41.4762 80.0377 40.1453C80.0377 34.8216 77.9283 29.716 74.1752 25.9516C70.4221 22.1873 65.3347 20.0726 60.0254 20.0726C58.7004 20.0726 57.4254 20.6014 56.4879 21.5423C55.5504 22.4835 55.0223 23.7598 55.0223 25.0907C55.0223 26.4216 55.5504 27.6982 56.4879 28.6391C57.4254 29.5804 58.7004 30.1091 60.0254 30.1091C62.6785 30.1091 65.2253 31.1663 67.1003 33.0484C68.9784 34.9306 70.0315 37.4834 70.0315 40.1453Z" fill="#fff"/>
</svg>
