<svg width="100" height="100" viewBox="0 0 100 100" fill="none" xmlns="http://www.w3.org/2000/svg">
<g clip-path="url(#clip0_496_1501)">
<path d="M77.4741 13.1303C77.4857 12.9675 77.4857 12.8044 77.4741 12.6416C77.4038 9.26675 75.9846 6.05322 73.5205 3.69014C71.0565 1.32707 67.7435 0.0021249 64.2926 2.55455e-06C60.8417 -0.00211979 57.5269 1.31828 55.0598 3.67832C52.5924 6.03836 51.1686 9.24977 51.0941 12.6246C52.1091 18.9986 54.7748 21.0072 56.8477 25.7234L27.9978 25.1682L27.436 53.1507C21.9689 51.0666 18.0422 47.3203 13.4043 47.2333C13.2366 47.2227 13.0684 47.2227 12.9007 47.2333C9.4513 47.3009 6.16652 48.688 3.75039 51.0969C1.33426 53.5057 -0.0204005 56.7447 -0.0234324 60.1193C-0.0264643 63.4935 1.32243 66.7349 3.73402 69.1477C6.14591 71.5608 9.42827 72.9537 12.8774 73.0273C19.7798 71.9777 21.6745 69.1089 27.1492 67.0493V97.4601H55.7333C53.6565 92.5527 50.7105 89.3227 49.6778 82.831C49.7524 79.4568 51.1756 76.2457 53.6424 73.886C56.1091 71.5259 59.423 70.2055 62.8737 70.2076C66.324 70.2095 69.6363 71.5338 72.1004 73.8966C74.5644 76.259 75.9837 79.472 76.054 82.8462C76.0637 83.0096 76.0637 83.1736 76.054 83.3371C75.9667 87.6951 73.1649 92.4123 70.9856 97.4601H99.5887L100.03 26.5344L71.7629 25.9923C73.9638 21.0885 77.3886 17.4202 77.4741 13.1303Z" fill="black"/>
</g>
<defs>
<clipPath id="clip0_496_1501">
<rect width="100" height="100" fill="white"/>
</clipPath>
</defs>
</svg>
